<svg aria-label="Small phone icon" class="icon icon-phone-sm" width="16" height="16" viewBox="0 0 16 16" fill="none">
  <path d="M8.72574 4.31033C9.48794 4.29999 10.2539 4.58239 10.8357 5.16421" stroke="currentColor" stroke-width="1.5" stroke-linecap="round"/>
  <path d="M12.9263 3.07376C11.7664 1.91383 10.2457 1.3335 8.72574 1.3335" stroke="currentColor" stroke-width="1.5" stroke-linecap="round"/>
  <path d="M11.6895 7.27397C11.6999 6.51178 11.4175 5.74588 10.8357 5.16406" stroke="currentColor" stroke-width="1.5" stroke-linecap="round"/>
  <path d="M12.9263 3.07373C14.0863 4.23366 14.6666 5.75436 14.6666 7.27432" stroke="currentColor" stroke-width="1.5" stroke-linecap="round"/>
  <path fill-rule="evenodd" clip-rule="evenodd" d="M13.1356 11.4213L12.2685 10.5542C11.8352 10.1209 11.1329 10.1209 10.7004 10.5542L10.0188 11.2358C9.86654 11.3881 9.63588 11.4391 9.43921 11.3526C8.45154 10.9201 7.47568 10.2644 6.60556 9.39427C5.73912 8.52781 5.0856 7.55641 4.65238 6.57242C4.56218 6.36912 4.61467 6.13033 4.77214 5.97287L5.38278 5.36222C5.87884 4.86616 5.87884 4.16458 5.44562 3.73136L4.57845 2.86419C4.00107 2.28681 3.06514 2.28681 2.48776 2.86419L2.00575 3.34546C1.45794 3.89327 1.2295 4.68356 1.37736 5.46719C1.74256 7.39894 2.86479 9.51401 4.6753 11.3245C6.4858 13.135 8.60088 14.2573 10.5326 14.6225C11.3163 14.7703 12.1065 14.5419 12.6543 13.9941L13.1356 13.5128C13.713 12.9354 13.713 11.9995 13.1356 11.4213Z" stroke="currentColor" stroke-width="1.5" stroke-linecap="round"/>
</svg>
