<svg aria-label="Gift icon" class="icon icon-gift-large" width="36" height="36" xmlns="http://www.w3.org/2000/svg" viewBox="0 0 36 36"><path d="M27.6,18v9.6A2.4,2.4,0,0,1,25.2,30H10.8a2.4,2.4,0,0,1-2.4-2.4V18" fill="none" stroke="currentColor" stroke-linecap="round" stroke-linejoin="round" stroke-width="1.141"/><path d="M30,12H6v6H30Z" fill="none" stroke="currentColor" stroke-linecap="round" stroke-width="1.141"/><path d="M18,30V12" fill="none" stroke="currentColor" stroke-linecap="round" stroke-linejoin="round" stroke-width="1.141"/><path d="M18,12H12.6a3,3,0,1,1,0-6C16.8,6,18,12,18,12Z" fill="none" stroke="currentColor" stroke-linecap="round" stroke-linejoin="round" stroke-width="1.141"/><path d="M18,12h5.4a3,3,0,0,0,0-6C19.2,6,18,12,18,12Z" fill="none" stroke="currentColor" stroke-linecap="round" stroke-linejoin="round" stroke-width="1.141"/></svg>