<svg aria-label="Pockets icon" class="icon" width="48" height="48" viewBox="0 0 48 48" fill="none" xmlns="http://www.w3.org/2000/svg">
  <path d="m8.6 15.982-.018-.6-1.2.036.018.6 1.2-.036Zm-.083 17.134.6-.018-.6.018Zm.527.82.284-.529-.284.529ZM24 42l-.285.528.285.154.285-.154L24 42Zm16.6-25.982.018-.6-1.2-.036-.018.6 1.2.036Zm-1.117 17.098.6.019-.6-.019Zm-.527.82-.285-.529.285.529ZM7.4 16.018l.517 17.117 1.2-.037L8.6 15.982l-1.2.036ZM8.76 34.464l14.956 8.064.57-1.056-14.957-8.065-.569 1.057Zm-.842-1.33c.017.57.351 1.065.842 1.33l.57-1.056c-.145-.078-.21-.202-.212-.31l-1.2.037ZM39.4 15.983l-.517 17.116 1.2.037.517-17.117-1.2-.036Zm-.728 17.425-14.957 8.065.57 1.056 14.956-8.064-.57-1.056Zm.211-.309c-.003.108-.067.232-.212.31l.57 1.056c.49-.265.825-.76.842-1.33l-1.2-.036Z" fill="currentColor" stroke="none" />
  <path stroke="currentColor" stroke-width="1.2" d="M6.6 6.6h34.8v8.8H6.6z"/>
</svg>