<svg aria-label="Clip closure icon" class="icon icon--solid" width="48" height="48" xmlns="http://www.w3.org/2000/svg" viewBox="0 0 48 48"><path d="M38.32 11.97c-.46-.51-1.1-.83-1.78-.91l-.26-.03h-5.17c-.17.02-.36.04-.52.07-.56.1-1.06.39-1.45.78.39-.41.89-.7 1.45-.82.17-.04.35-.07.52-.07h-9.67c-.18.02-.36.04-.52.11-.69.14-1.29.53-1.7 1.09v.04c-.09-.11-.17-.22-.27-.32-.5-.53-1.19-.85-1.93-.88h-5.27c-.17.02-.36.04-.53.07-.6.16-1.14.5-1.52.99-.39.48-.6 1.08-.61 1.7V34.2c0 .66.23 1.3.66 1.81.43.51 1.03.85 1.69.95.15.02.3.04.45.04h5c.45 0 .89-.1 1.29-.3.4-.2.74-.49 1-.85l.04-.06c.12.14.22.27.35.4.26.26.56.46.9.6.34.14.7.21 1.07.21h5c.45 0 .89-.1 1.29-.3s.74-.5 1-.86l.03-.05.04.05c.22.32.51.58.84.78.33.2.7.33 1.09.38h5.42c.65 0 1.28-.23 1.79-.64a2.774 2.774 0 0 0 1.01-2.14v-20.4c0-.68-.25-1.34-.72-1.85ZM18.24 13.8v20.41a1.366 1.366 0 0 1-.85 1.28c-.17.07-.35.11-.54.11h-5.03c-.36 0-.71-.14-.97-.38-.26-.25-.41-.59-.42-.95V23.99l-.02-10.14a1.397 1.397 0 0 1 .76-1.3c.21-.11.44-.16.68-.16h5c.34 0 .67.11.93.33.26.22.43.52.48.85v.23Zm4.84 21.81h-1.71a1.414 1.414 0 0 1-1.31-1.19v-20.6a1.413 1.413 0 0 1 1.22-1.42h1.79v23.2Zm4.84-21.76V34.2c.01.33-.1.65-.3.91-.21.26-.5.43-.83.5H24.5V12.4h2.01c.33 0 .66.1.92.31s.44.5.5.83v.31Zm9.38 21.28c-.21.25-.5.43-.83.49h-5.28c-.19 0-.38-.03-.55-.1a1.423 1.423 0 0 1-.78-.77c-.07-.17-.1-.36-.1-.54V13.83c0-.19.03-.38.1-.55.07-.18.18-.34.31-.47.13-.13.29-.24.47-.31s.37-.11.56-.1h4.99c.33 0 .65.1.9.3s.43.48.5.8v20.73c.02.33-.09.65-.3.9Z"/><path d="M35.16 13.69a2.47 2.47 0 0 0-1.68-.49c-.6.05-1.16.32-1.57.75-.41.44-.64 1.01-.65 1.61v17.23c.09.6.4 1.15.88 1.52.48.38 1.08.57 1.69.52.61-.05 1.18-.32 1.6-.77.41-.45.64-1.03.64-1.64V15.17c-.11-.59-.43-1.12-.91-1.48Zm-.49 1.93v16.76c0 .23-.06.46-.2.64-.14.19-.33.32-.56.38-.15.04-.3.04-.45 0-.15-.03-.29-.1-.41-.19a.872.872 0 0 1-.28-.35.976.976 0 0 1-.1-.44v-8.43c0-2.81 0-5.62-.01-8.43a1.012 1.012 0 0 1 .98-.96c.26 0 .5.08.7.25.19.17.31.4.34.65v.11ZM15.71 13.58a2.435 2.435 0 0 0-3.21.38c-.39.44-.61 1.01-.6 1.6v16.85c0 .15.02.31.04.46.11.59.43 1.13.92 1.49a2.5 2.5 0 0 0 1.7.48c.61-.06 1.17-.34 1.57-.79.4-.45.62-1.04.61-1.64V15.62c0-.21-.02-.42-.07-.62-.13-.57-.48-1.08-.97-1.42Zm-.38 10.43v8.43c.01.14 0 .28-.05.41-.05.13-.12.25-.21.35s-.21.18-.34.24c-.13.06-.27.08-.41.08s-.28-.03-.41-.08c-.13-.06-.24-.14-.34-.24a.963.963 0 0 1-.21-.35.947.947 0 0 1-.05-.41V15.58c0-.26.1-.51.28-.7.18-.19.42-.3.69-.31.26 0 .51.08.71.24.2.17.32.4.35.65V24Z"/></svg>