<svg aria-label="Hidden support icon" class="icon" width="48" height="48" viewBox="0 0 48 48" fill="none" xmlns="http://www.w3.org/2000/svg">
  <path d="M6.143 10c-.34 3.401-1.02 10.51-1.02 11.735m0 0c-.511 2.721-1.43 8.673-1.021 10.714.51 2.551 2.55 4.592 3.061 5.102v3.062c.68.51 2.755 1.53 5.612 1.53 3.572 0 7.653-2.55 11.225-2.55M5.122 21.734c11.837 0 17.517 6.122 18.878 9.184m0 8.673V30.92m0 8.673c3.572 0 7.653 2.551 11.225 2.551 2.857 0 4.932-1.02 5.612-1.53V37.55c.51-.51 2.551-2.55 3.061-5.102.408-2.04-.51-7.993-1.02-10.714M24 30.919c1.36-3.062 7.041-9.184 18.878-9.184M41.858 10c.34 3.401 1.02 10.51 1.02 11.735" stroke="currentColor" stroke-width="1.2" stroke-linecap="square"/>
  <path d="M26 37c2.15.667 5.913 2 9.138 2 1.35 0 2.688-.366 3.862-.81M22 37c-2.15.667-5.913 2-9.138 2-1.35 0-2.688-.366-3.862-.81" stroke="currentColor" stroke-width="1.2" stroke-linecap="square" stroke-dasharray="0.5 2.8"/>
</svg>