<svg aria-label="Tape measure icon" class="icon icon-measure" xmlns="http://www.w3.org/2000/svg" width="24" height="24" viewBox="0 0 24 24">
  <path d="M2,9v8c.262,2.3,3.934,3.067,6,3H22V13H9" fill="none" stroke="currentColor" stroke-width="1.2" vector-effect="non-scaling-stroke"/>
  <path d="M17,9v4" fill="none" stroke="currentColor" stroke-linecap="round" stroke-width="1.2" vector-effect="non-scaling-stroke"/>
  <path d="M9.5,5C13.642,5,17,6.791,17,9s-3.358,4-7.5,4S2,11.209,2,9,5.357,5,9.5,5Z" fill="none" stroke="currentColor" stroke-width="1.2" vector-effect="non-scaling-stroke"/>
  <path d="M9.5,10c1.381,0,2.5-.448,2.5-1S10.881,8,9.5,8,7,8.448,7,9,8.119,10,9.5,10Z" fill="currentColor" stroke="none"/>
  <path d="M10,17v3" fill="none" stroke="currentColor" stroke-width="1.2" vector-effect="non-scaling-stroke"/>
  <path d="M14,17v3" fill="none" stroke="currentColor" stroke-width="1.2" vector-effect="non-scaling-stroke"/>
  <path d="M18,17v3" fill="none" stroke="currentColor" stroke-width="1.2" vector-effect="non-scaling-stroke"/>
</svg>
