<svg aria-label="Apple Pay logo" class="icon-payment icon-apple-pay" width="46" height="24" viewBox="0 0 46 24" fill="none" xmlns="http://www.w3.org/2000/svg">
<path d="M6 11.7506C6.01762 11.6265 6.03294 11.5001 6.05363 11.3752C6.1425 10.8382 6.32791 10.3379 6.65045 9.89581C7.02661 9.37276 7.57606 9.00004 8.20111 8.8439C8.68225 8.71596 9.15112 8.7558 9.61311 8.92818L10.3149 9.1902C10.5263 9.26911 10.7386 9.26988 10.9508 9.1925C11.2036 9.10056 11.4541 9.00326 11.7085 8.91515C12.0793 8.78568 12.4593 8.70447 12.8562 8.73741C13.4691 8.79027 14.0245 8.9887 14.475 9.42464C14.6068 9.55181 14.7171 9.70045 14.8351 9.83605C14.7041 9.94025 14.5777 10.0284 14.4643 10.1295C13.9709 10.5738 13.6721 11.1178 13.6338 11.7897C13.6077 12.2379 13.6706 12.6723 13.8736 13.0806C14.1142 13.5625 14.4865 13.9127 14.9539 14.1686C14.9791 14.1824 15.0044 14.1969 15.0289 14.2084C15.137 14.262 15.1362 14.262 15.1002 14.3731C14.9868 14.7217 14.8359 15.055 14.6558 15.3729C14.416 15.7943 14.154 16.2027 13.8361 16.5712C13.679 16.755 13.5036 16.9182 13.2944 17.0446C12.9466 17.2538 12.5758 17.2898 12.1912 17.1902C12.0204 17.1427 11.8538 17.0812 11.6932 17.0063C11.0726 16.7275 10.4582 16.7367 9.84065 17.0117C9.62383 17.109 9.40242 17.2002 9.16568 17.2446C8.8056 17.312 8.48535 17.2277 8.19039 17.0155C7.89389 16.8025 7.66405 16.5275 7.448 16.2379C7.10324 15.7744 6.79525 15.2887 6.56618 14.7562C6.28499 14.1064 6.10267 13.4182 6.02528 12.7144C6.01762 12.6432 6.00843 12.5727 6 12.5014V11.7506ZM12.8171 6C12.8194 6.09194 12.8248 6.18387 12.8225 6.27504C12.8094 6.80521 12.6156 7.27485 12.3107 7.69853C12.0012 8.13063 11.5905 8.42176 11.068 8.54511C10.8955 8.58324 10.7178 8.59179 10.5424 8.57039C10.5093 8.3518 10.5237 8.12865 10.5846 7.91611C10.8734 6.89868 11.5407 6.27658 12.5643 6.03141C12.621 6.01839 12.68 6.00996 12.7382 6H12.8171ZM18.5823 13.6047V17.1266H16.9734V6.79065H20.8286C21.4522 6.79065 22.0483 6.90941 22.6007 7.2082C23.2111 7.53094 23.6928 8.05268 23.9659 8.68685C24.2188 9.25838 24.3 9.8598 24.2578 10.4796C24.2195 11.0465 24.0671 11.579 23.7675 12.0647C23.3852 12.6846 22.8443 13.1105 22.1655 13.3672C21.715 13.5373 21.2454 13.6032 20.7665 13.6047H18.583H18.5823ZM18.5578 12.2639H18.6129C19.2159 12.2639 19.8188 12.2662 20.4225 12.2632C20.6784 12.2616 20.9305 12.2371 21.178 12.1712C21.8177 12.0027 22.2735 11.6265 22.4865 10.9876C22.626 10.5708 22.6321 10.1425 22.5555 9.71347C22.439 9.05306 22.0759 8.58342 21.4453 8.33289C21.1059 8.19882 20.7489 8.16204 20.3873 8.16051H18.5578V12.2647V12.2639ZM25.0102 11.8487C25.0171 11.6288 25.0592 11.4197 25.1328 11.2166C25.3764 10.5363 25.8568 10.0812 26.5041 9.79008C26.9332 9.59855 27.3852 9.50814 27.8548 9.4821C28.4072 9.45145 28.9504 9.50048 29.4745 9.68359C30.154 9.91879 30.675 10.3348 30.9569 11.0151C31.0856 11.3262 31.1347 11.6526 31.1347 11.9858C31.137 13.6897 31.1354 15.3944 31.1354 17.0975V17.1542H29.6568V15.9276L29.6407 15.9245C29.633 15.9337 29.6223 15.9414 29.617 15.9521C29.2615 16.5911 28.7167 16.9918 28.0219 17.1818C27.2044 17.404 26.413 17.3212 25.6844 16.8776C25.109 16.5275 24.7849 15.9996 24.7007 15.33C24.6509 14.9378 24.6838 14.5562 24.8416 14.19C25.0224 13.7725 25.3258 13.4698 25.715 13.2492C26.1233 13.0187 26.5758 12.8774 27.0427 12.8347C27.5637 12.7834 28.087 12.7596 28.6095 12.7267C28.9205 12.7068 29.2308 12.6922 29.5434 12.6738C29.5511 12.6738 29.5603 12.6715 29.5764 12.6685V12.4984C29.5687 12.2708 29.5809 12.041 29.5457 11.8165C29.463 11.2825 29.1312 10.9615 28.6179 10.8274C28.204 10.7162 27.7661 10.7322 27.3615 10.8734C26.9133 11.0266 26.6175 11.3316 26.5003 11.7974C26.4911 11.8341 26.4819 11.8579 26.4344 11.8579C25.9763 11.8548 25.5174 11.8564 25.0592 11.8564C25.0429 11.8533 25.0266 11.8508 25.0102 11.8487ZM29.5764 13.7411C29.5472 13.7411 29.5304 13.7395 29.5128 13.7411C28.8784 13.7794 28.244 13.8146 27.6097 13.8598C27.3218 13.8746 27.0407 13.9531 26.7868 14.0896C26.262 14.3808 26.1617 14.9416 26.3555 15.3921C26.4988 15.7276 26.7792 15.9115 27.1201 15.9981C27.6413 16.1364 28.1957 16.068 28.6677 15.8073C29.1443 15.5522 29.4568 15.163 29.5488 14.6229C29.5809 14.4321 29.5695 14.2344 29.5756 14.0406C29.5787 13.9425 29.5756 13.8437 29.5756 13.7418L29.5764 13.7411ZM32.5099 19.9506V18.7148C32.7091 18.7148 32.9068 18.7194 33.106 18.7133C33.3979 18.7041 33.6691 18.6305 33.8912 18.4275C34.0502 18.281 34.1712 18.098 34.2437 17.8943C34.3272 17.6706 34.3946 17.4423 34.4643 17.214C34.472 17.1879 34.4612 17.1534 34.4521 17.1259C34.0353 15.9728 33.6177 14.8198 33.1994 13.6683L31.7621 9.70428C31.7552 9.68589 31.7499 9.6675 31.7422 9.64222C31.7698 9.64069 31.7936 9.63915 31.8158 9.63915C32.323 9.63915 32.8294 9.64069 33.3358 9.63839C33.3887 9.63839 33.4124 9.65294 33.4277 9.70428C34.0506 11.7116 34.6765 13.7188 35.2994 15.7261L35.3247 15.7951H35.3431C35.3507 15.7744 35.3607 15.7545 35.3668 15.7338L36.8118 11.0925C36.9573 10.6282 37.1014 10.1647 37.2454 9.70045C37.2569 9.66061 37.2684 9.63839 37.3189 9.63839C37.8284 9.64069 38.3364 9.63992 38.8451 9.63992C38.8627 9.63992 38.8796 9.64222 38.9033 9.64452L38.7233 10.1555L36.0908 17.5901C35.9391 18.0184 35.7644 18.4367 35.5223 18.8221C35.2902 19.1898 35.0075 19.5039 34.6152 19.707C34.3236 19.8554 34.0059 19.946 33.6798 19.9736C33.5166 19.9897 33.3503 20.0042 33.1872 19.9989C32.9612 19.995 32.7374 19.9682 32.5099 19.9514V19.9506Z" fill="currentColor"/>
</svg>
