<svg aria-label="Gift card icon" class="icon icon-gift-card" width="36" height="36" xmlns="http://www.w3.org/2000/svg" viewBox="0 0 36 36"><path d="M3,8.994A3,3,0,0,1,6,6H30a3,3,0,0,1,3,2.994V26.96a3,3,0,0,1-3,2.994H6A3,3,0,0,1,3,26.96Z" fill="none" stroke="currentColor" stroke-linecap="round" stroke-width="1.141"/><path d="M22,17H18.143a2.224,2.224,0,0,1-1.515-.586,1.906,1.906,0,0,1,0-2.828A2.224,2.224,0,0,1,18.143,13C21.143,13,22,17,22,17Z" fill="none" stroke="currentColor" stroke-linecap="round" stroke-linejoin="round" stroke-width="1.141"/><path d="M22,17h3.858a2.224,2.224,0,0,0,1.515-.586,1.908,1.908,0,0,0,0-2.828A2.224,2.224,0,0,0,25.858,13C22.5,13,22,17,22,17Z" fill="none" stroke="currentColor" stroke-linecap="round" stroke-linejoin="round" stroke-width="1.141"/><path d="M22,17l-3.5,4.5m3.516-4.6L25,21.5" fill="none" stroke="currentColor" stroke-width="1.141"/><line x1="14" y1="16.571" x2="3" y2="16.571" fill="none" stroke="currentColor" stroke-width="1.141"/><path d="M22,6v5" fill="none" stroke="currentColor" stroke-width="1.141"/><path d="M22,23v7" fill="none" stroke="currentColor" stroke-width="1.141"/><line x1="32.946" y1="16.571" x2="31" y2="16.571" fill="none" stroke="currentColor" stroke-width="1.141"/></svg>