<svg aria-label="Facebook Pay logo" class="icon-payment icon-facebook-pay" width="46" height="24" xmlns="http://www.w3.org/2000/svg" viewBox="0 0 46 24"><path d="M3.94,10.26v.42s0,0,0,0l0,0H2.1v.85H3.58l0,0s0,0,0,0v.42l0,0,0,0H2.1v1.26l0,0H1.57l0,0v-3.1l0,0a0,0,0,0,1,0,0H3.89s0,0,0,0A0,0,0,0,1,3.94,10.26Z"/><path d="M7.61,13.4H7.12s0,0-.06,0c-.06-.26-.14-.53-.23-.81H5.3c-.09.28-.17.55-.23.81,0,0,0,.05-.06,0H4.53s0,0,0-.05a21.66,21.66,0,0,1,1.17-3.08.08.08,0,0,1,.09,0H6.4a.07.07,0,0,1,.08,0,21.66,21.66,0,0,1,1.17,3.08S7.64,13.4,7.61,13.4Zm-1-1.34c-.17-.46-.35-.92-.54-1.34H6c-.19.42-.37.88-.54,1.34Z"/><path d="M8.43,11.84A1.57,1.57,0,0,1,10,10.15h.07a1.42,1.42,0,0,1,1.27.73,0,0,0,0,1,0,0s0,0,0,0l-.41.2h0l0,0a.84.84,0,0,0-.79-.45H10a1,1,0,0,0-1,1.14,1,1,0,0,0,1,1.13h.07a.94.94,0,0,0,.78-.33,0,0,0,0,1,.07,0l.41.2a0,0,0,0,1,0,0l0,0a1.48,1.48,0,0,1-1.26.6H10A1.51,1.51,0,0,1,8.43,11.84Z"/><path d="M15,12.94v.42s0,0,0,0l0,0H12.54l0,0s0,0,0,0v-3.1a0,0,0,0,1,0,0s0,0,0,0h2.35a0,0,0,0,1,0,0l0,0v.42s0,0,0,0l0,0H13v.83h1.54a0,0,0,0,1,0,0V12a0,0,0,0,1,0,0H13v.84h1.89s0,0,0,0a0,0,0,0,1,0,0Z"/><path d="M19.1,12.53c0,.56-.43.87-1.19.87H16.35s0,0,0,0V10.23s0,0,0,0h1.42c.74,0,1.14.29,1.14.82a.67.67,0,0,1-.54.69A.79.79,0,0,1,19.1,12.53Zm-1.34-1.82h-.92v.86h.92c.42,0,.6-.14.6-.43S18.18,10.71,17.76,10.71Zm.78,1.77c0-.29-.19-.43-.62-.43H16.84v.86h1.08c.43,0,.62-.13.62-.43Z"/><path d="M20.05,11.81a1.56,1.56,0,0,1,1.64-1.65h.07a1.56,1.56,0,0,1,1.64,1.65,1.56,1.56,0,0,1-1.64,1.65h-.07A1.56,1.56,0,0,1,20.05,11.81Zm1.71,1.13a1,1,0,0,0,1.07-1.13,1,1,0,0,0-1.07-1.14h-.07a1,1,0,0,0-1.06,1.14,1,1,0,0,0,1.06,1.13Z"/><path d="M24.33,11.81A1.56,1.56,0,0,1,26,10.16H26a1.57,1.57,0,0,1,1.65,1.65A1.56,1.56,0,0,1,26,13.46H26A1.56,1.56,0,0,1,24.33,11.81ZM26,12.94a1,1,0,0,0,1.07-1.13A1,1,0,0,0,26,10.67H26a1,1,0,0,0-1.07,1.14A1,1,0,0,0,26,12.94Z"/><path d="M31.6,13.4H31a.08.08,0,0,1-.08,0A12.75,12.75,0,0,0,29.62,12h-.26v1.35h-.52a0,0,0,0,1,0,0v-3.1a0,0,0,0,1,0,0s0,0,0,0h.45a0,0,0,0,1,0,0l0,0v1.26h.27a11,11,0,0,0,1.19-1.27.06.06,0,0,1,.06,0h.56s0,0,0,0a.05.05,0,0,1,0,0A11,11,0,0,1,30,11.76a13.27,13.27,0,0,1,1.59,1.59S31.64,13.4,31.6,13.4Z"/><path d="M37,10.35a.89.89,0,0,1,.4.39,1.15,1.15,0,0,1,0,1.06,1,1,0,0,1-.43.37,1.68,1.68,0,0,1-.7.14h-.9v1.08s0,0,0,0h-.45s0,0,0,0a0,0,0,0,1,0,0V10.24a0,0,0,0,1,0,0h1.44A1.61,1.61,0,0,1,37,10.35Zm-.19,1.3a.61.61,0,0,0,.15-.41c0-.36-.22-.54-.67-.54h-.94v1.11h.94A.67.67,0,0,0,36.84,11.65Z"/><path d="M41.24,13.37a0,0,0,0,1,0,0h-.5a.05.05,0,0,1-.05-.05c-.07-.27-.15-.54-.24-.82H38.88c-.1.29-.17.56-.24.82a0,0,0,0,1,0,.05h-.48l0,0s0,0,0,0c.14-.49.31-1,.52-1.55s.42-1.05.65-1.54a.1.1,0,0,1,0,0H40a.1.1,0,0,1,0,0c.23.48.44,1,.65,1.53s.38,1.06.53,1.56c0,0,0,0,0,0Zm-1-1.32q-.26-.72-.54-1.35h-.11c-.19.44-.38.89-.54,1.35Z"/><path d="M44.74,10.23l0,0a15.64,15.64,0,0,1-1.21,2v1.09a0,0,0,0,1,0,0s0,0,0,0H43s0,0,0,0a0,0,0,0,1,0,0V12.27a15,15,0,0,1-1.22-2s0,0,0,0,0,0,.06,0h.51l0,0c.25.48.54,1,.88,1.52h.08c.32-.49.61-1,.88-1.52a.05.05,0,0,1,0,0h.49S44.74,10.21,44.74,10.23Z"/></svg>