<svg aria-label="Medium coverage icon" class="icon" width="48" height="48" viewBox="0 0 48 48" fill="none" xmlns="http://www.w3.org/2000/svg">
  <path d="M9.18 43.799a137.64 137.64 0 0 1-2.87-9.147c-.964-3.52-1.71-6.96-1.71-9.03H3.4c0 2.253.792 5.84 1.752 9.347.966 3.53 2.125 7.059 2.898 9.232l1.13-.402ZM4.6 25.622c0-2.074.832-6.053 1.904-10.258A220.85 220.85 0 0 1 9.7 4.181l-1.144-.362a222.056 222.056 0 0 0-3.214 11.249C4.277 19.242 3.4 23.37 3.4 25.622h1.2ZM39.332 43.799c.76-2.137 1.78-5.628 2.61-9.127.833-3.514 1.458-6.966 1.458-9.05h1.2c0 2.24-.657 5.814-1.49 9.327-.837 3.529-1.869 7.064-2.647 9.252l-1.13-.402ZM43.4 25.622c0-2.086-.71-6.076-1.652-10.274-.938-4.177-2.087-8.485-2.935-11.167l1.144-.362c.86 2.723 2.019 7.064 2.962 11.266.938 4.18 1.681 8.298 1.681 10.537h-1.2Z" fill="currentColor" stroke="none" />
  <path d="M24.5 10.5c-8 0-14.167-1-16.5-1l-1.5 5S18.422 26.506 23 32h2.5C30.57 25.917 42 14.5 42 14.5l-1.5-5c-2.167.333-7.99 1-16 1Z" stroke="currentColor" stroke-width="1.2"/>
  <path d="M15.795 37.514c2.222-.36 7.692-2.163 7.18-5.946M32.24 36.973c-2.223-.36-7.214-1.622-6.702-5.405" stroke="currentColor" stroke-width="1.2"/>
  <path d="M23.572 44.052c.17-1.969.515-6.29.515-7.62h-1.2c0 1.265-.338 5.52-.51 7.517l1.195.103Zm.515-7.62c0-1.351-.35-3.883-.52-4.958l-1.185.187c.172 1.087.505 3.528.505 4.771h1.2ZM24.94 44.052c-.17-1.969-.515-6.29-.515-7.62h1.2c0 1.265.339 5.52.51 7.517l-1.195.103Zm-.515-7.62c0-1.351.35-3.883.52-4.958l1.186.187c-.172 1.087-.506 3.528-.506 4.771h-1.2Z" fill="currentColor" stroke="none" />
</svg>