<svg aria-label="Book icon" class="icon icon-book icon--solid" width="24" height="24" viewBox="0 0 24 24" fill="none" xmlns="http://www.w3.org/2000/svg">
  <path d="M2 18.118h-.6v.6H2v-.6ZM2 4v-.6h-.6V4H2Zm7.003 0v-.6.6Zm-.301 13.515L2 17.518v1.2l6.702-.003v-1.2Zm-6.102.603V4H1.4v14.118h1.2ZM2 4.6h7.002V3.4H2v1.2ZM11.4 7v13h1.2V7h-1.2ZM9.002 4.6A2.399 2.399 0 0 1 11.4 7h1.2a3.599 3.599 0 0 0-3.597-3.6v1.2Zm3.515 15.095a4.426 4.426 0 0 0-3.815-2.18v1.2c1.143 0 2.2.604 2.781 1.59l1.034-.61Z" fill="currentColor"/>
  <path d="M12 20h-.6a.6.6 0 0 0 1.117.305L12 20Zm10-1.882-.002.6.602.001v-.601H22ZM22 4h.6v-.6H22V4Zm-9.76 15.593-.517-.305.517.305Zm2.584-1.476v-.6.6Zm-2.307 2.188.24-.407-1.034-.61-.24.407 1.034.61ZM22.6 18.118V5.41h-1.2v12.707h1.2ZM22 3.4h-7v1.2h7V3.4Zm.6 2.011V4h-1.2V5.412h1.2Zm-7.776 13.306c2.331-.001 5.51-.003 7.175 0l.003-1.2c-1.666-.003-4.849-.001-7.179 0l.001 1.2ZM11.4 7v13h1.2V7h-1.2ZM15 3.4A3.6 3.6 0 0 0 11.4 7h1.2A2.4 2.4 0 0 1 15 4.6V3.4Zm-2.243 16.498a2.401 2.401 0 0 1 2.067-1.18v-1.2a3.602 3.602 0 0 0-3.1 1.77l1.033.61Z" fill="currentColor"/>
</svg>