<svg aria-label="Gift with money icon" class="icon icon-gift-money" width="24" height="24" xmlns="http://www.w3.org/2000/svg" viewBox="0 0 24 24"><path d="M3,21V3c5,0,13,0,18,0V21H3Z" fill="none" stroke="currentColor" stroke-linecap="square" stroke-width="1.2" vector-effect="non-scaling-stroke"/><path d="M7,12H3" fill="none" stroke="currentColor" vector-effect="non-scaling-stroke"/><path d="M21,12h-4" fill="none" stroke="currentColor" vector-effect="non-scaling-stroke"/><path d="M15.445,14.049c0-3.701-5.286-2.326-5.286-4.441,0-.833,.714-1.348,1.903-1.348,1.163,0,1.956,.634,2.141,1.639l1.097-.423c-.211-1.216-1.255-2.062-2.656-2.247v-1.229h-1.084v1.216c-1.559,.159-2.617,1.084-2.617,2.392,0,3.278,5.26,1.982,5.26,4.454,0,.925-.819,1.52-2.088,1.52-1.229,0-2.22-.846-2.405-2.141l-1.137,.37c.278,1.52,1.454,2.604,2.987,2.802v1.374l1.084,.013v-1.374c1.705-.172,2.802-1.15,2.802-2.577Z" fill="currentColor" stroke="none"/></svg>
