<svg aria-label="Amex logo" class="icon-payment icon-amex" width="46" height="24" viewBox="0 0 46 24" fill="none" xmlns="http://www.w3.org/2000/svg">
<path fill-rule="evenodd" clip-rule="evenodd" d="M38.1599 8.87573H40.8001L37.3354 12.7558L40.8001 16.6359H38.1454L35.9854 14.1992L33.7801 16.6359H25.6801V8.87573H33.945L36.0301 11.2038L38.1599 8.87573ZM31.8001 14.8511V15.8599L34.6952 12.7558L31.8001 9.46551V10.6451H27.6003V11.8712H31.8001V13.625H27.6003V14.8511H31.8001Z" fill="currentColor"/>
<path fill-rule="evenodd" clip-rule="evenodd" d="M21.3 8.87586H24.3002V16.6361H22.29V11.5143L19.9947 16.6361H18.1802L15.6747 11.0487V16.6361H11.9249L11.22 14.9133H7.71L7.03529 16.6361H4.7998L8.07 8.87586H10.9198L13.7998 15.4249V8.87586H16.8L19.05 13.8269L21.3 8.87586ZM9.4351 10.5676L8.4149 13.144H10.5L9.4351 10.5676Z" fill="currentColor"/>
</svg>
