<svg aria-label="Elasticated icon" class="icon icon--solid" width="48" height="48" xmlns="http://www.w3.org/2000/svg" viewBox="0 0 48 48"><path d="M12.04 11.2h3.93c.16 0 .31-.06.42-.18.11-.11.18-.27.18-.42s-.06-.31-.18-.42a.617.617 0 0 0-.42-.18H10.6a.56.56 0 0 0-.42.18c-.11.11-.18.27-.18.42v.03h-.01v5c0 .15.06.29.17.39.11.11.27.18.42.18s.31-.06.42-.18c.11-.11.16-.25.17-.39v-3.59l9.71 9.72c.11.11.27.18.42.18s.31-.06.42-.18.18-.27.18-.42-.06-.31-.18-.43l-9.68-9.71ZM21.76 25.94a.593.593 0 0 0-.42-.18c-.08 0-.16.02-.23.05s-.14.07-.19.13l-9.71 9.72v-3.59c0-.15-.06-.29-.17-.39-.11-.11-.27-.18-.42-.18s-.31.06-.42.18c-.11.11-.16.25-.17.39v5h.01v.03c0 .16.06.31.18.42.11.11.27.18.42.18h5.37c.16 0 .31-.06.42-.18.11-.11.18-.27.18-.42s-.06-.31-.18-.42a.617.617 0 0 0-.42-.18h-3.93l9.72-9.71c.06-.06.1-.12.13-.2.03-.07.05-.15.05-.23s-.02-.16-.05-.23a.625.625 0 0 0-.13-.2ZM37.69 10.6a.56.56 0 0 0-.18-.42.617.617 0 0 0-.42-.18h-5.37a.56.56 0 0 0-.42.18c-.11.11-.18.27-.18.42s.06.31.18.42c.11.11.27.18.42.18h3.93l-9.72 9.71c-.11.11-.18.27-.18.43s.06.31.18.42c.11.11.27.18.43.18s.31-.06.42-.18l9.71-9.72v3.59c0 .15.06.29.17.39.11.11.27.18.42.18s.31-.06.42-.18c.11-.11.16-.25.17-.39v-5h-.01v-.03ZM37.52 31.68c-.11-.11-.27-.18-.42-.18s-.31.06-.42.18c-.11.11-.16.25-.17.39v3.59l-9.71-9.72a.593.593 0 0 0-.42-.18c-.08 0-.16.02-.23.05-.07.03-.14.07-.2.13s-.1.12-.13.2c-.03.07-.05.15-.05.23s.02.16.05.23c.03.07.07.14.13.2l9.72 9.71h-3.93a.56.56 0 0 0-.42.18c-.11.11-.18.27-.18.42s.06.31.18.42c.11.11.27.18.42.18h5.37c.16 0 .31-.06.42-.18.11-.11.18-.27.18-.42v-.03h.01v-5c0-.15-.06-.29-.17-.39Z" fill="currentColor"/></svg>