<svg aria-label="Skimpy coverage icon" class="icon" width="48" height="48" viewBox="0 0 48 48" fill="none" xmlns="http://www.w3.org/2000/svg">
  <path d="M9.086 43.832a137.746 137.746 0 0 1-2.873-9.153C5.25 31.16 4.5 27.708 4.5 25.622h-1c0 2.238.788 5.813 1.748 9.32a138.753 138.753 0 0 0 2.896 9.226l.942-.336ZM4.5 25.622c0-2.089.836-6.08 1.908-10.282A220.945 220.945 0 0 1 9.605 4.15l-.954-.3A221.936 221.936 0 0 0 5.44 15.092C4.373 19.269 3.5 23.386 3.5 25.622h1ZM39.426 43.832c.762-2.14 1.783-5.636 2.613-9.137.834-3.514 1.461-6.976 1.461-9.073h1c0 2.227-.655 5.791-1.488 9.304-.836 3.526-1.867 7.058-2.644 9.242l-.942-.336Zm4.074-18.21c0-2.099-.713-6.1-1.654-10.296-.938-4.18-2.089-8.49-2.938-11.175l.953-.302c.86 2.72 2.018 7.058 2.96 11.258.939 4.181 1.679 8.288 1.679 10.515h-1Z" fill="currentColor" stroke="none" />
  <path d="m6.13 15.637 1.322-4.643c.826.03 2.035.146 3.565.292.772.075 1.626.156 2.554.239 3.04.27 6.818.543 10.941.543 7.756 0 13.982-.64 16.563-1.02l1.295 4.55c-2.913 1.217-8.47 4.147-12.046 7.497l-.01.01c-1.145 1.072-2.018 1.89-2.677 2.576-.66.688-1.13 1.267-1.45 1.867-.596 1.116-.634 2.239-.636 4.06h-2.596c-.045-1.74-.346-3.313-1.282-4.89-1.016-1.713-2.752-3.385-5.6-5.295-4.068-2.73-8.026-4.788-9.783-5.703l-.16-.083Z" stroke="currentColor"/>
  <path d="M15.795 37.514c2.222-.36 7.692-2.163 7.18-5.946M32.24 36.973c-2.223-.36-7.214-1.622-6.702-5.405" stroke="currentColor"/>
  <path d="M23.473 44.043c.17-1.97.514-6.286.514-7.61h-1c0 1.27-.339 5.53-.51 7.524l.996.086Zm.514-7.61c0-1.343-.348-3.867-.518-4.944l-.988.157c.171 1.085.506 3.534.506 4.786h1ZM25.04 44.043c-.17-1.97-.515-6.286-.515-7.61h1c0 1.27.34 5.53.511 7.524l-.996.086Zm-.515-7.61c0-1.343.349-3.867.52-4.944l.987.157c-.172 1.085-.507 3.534-.507 4.786h-1Z" fill="currentColor" stroke="none" />
</svg>