<svg aria-label="Discover logo" class="icon-payment icon-discover" width="46" height="24" xmlns="http://www.w3.org/2000/svg" viewBox="0 0 46 24"><path d="M37,2.21H8.1V20.68H37Zm-.21,18.26v-8s-7.83,5.52-22.16,8H8.31c0-.21,0-17.84,0-18H36.75v18Z"/><path d="M23.21,6.9a2.1,2.1,0,0,0-2.13,2,2.13,2.13,0,1,0,2.13-2Z"/><path d="M11.12,7H10v4h1.14a2.09,2.09,0,0,0,1.43-.46A2,2,0,0,0,13.26,9,2,2,0,0,0,11.12,7ZM12,10a1.51,1.51,0,0,1-1.07.31h-.21V7.65H11A1.43,1.43,0,0,1,12,8a1.34,1.34,0,0,1,.43,1A1.38,1.38,0,0,1,12,10Z"/><rect x="13.62" y="6.98" width="0.78" height="3.99"/><path d="M17.45,9.75c0-.63-.26-.92-1.15-1.24-.46-.18-.6-.29-.6-.5s.24-.45.58-.45a.81.81,0,0,1,.63.33l.41-.54a1.78,1.78,0,0,0-1.18-.44A1.17,1.17,0,0,0,14.9,8.05c0,.55.25.84,1,1.1a3.4,3.4,0,0,1,.54.23.48.48,0,0,1,.23.41.57.57,0,0,1-.6.56.92.92,0,0,1-.85-.53l-.51.49a1.57,1.57,0,0,0,1.39.76A1.28,1.28,0,0,0,17.45,9.75Z"/><path d="M20.79,9.91a1.28,1.28,0,0,1-.95.44A1.31,1.31,0,0,1,18.5,9,1.33,1.33,0,0,1,19.81,7.6a1.31,1.31,0,0,1,1,.45V7.13a2.06,2.06,0,0,0-1-.24A2.1,2.1,0,0,0,17.7,9a2.07,2.07,0,0,0,2.11,2.08,2.29,2.29,0,0,0,1-.23Z"/><polygon points="27.1 9.66 26.03 6.98 25.18 6.98 26.88 11.07 27.3 11.07 29.02 6.98 28.18 6.98 27.1 9.66"/><polygon points="29.38 10.97 31.59 10.97 31.59 10.29 30.16 10.29 30.16 9.21 31.53 9.21 31.53 8.54 30.16 8.54 30.16 7.65 31.59 7.65 31.59 6.98 29.38 6.98 29.38 10.97"/><path d="M34.67,8.15c0-.74-.51-1.17-1.41-1.17H32.1v4h.78V9.37H33L34.06,11h1L33.76,9.29A1.06,1.06,0,0,0,34.67,8.15Zm-1.56.66h-.23V7.6h.24c.49,0,.75.21.75.6S33.61,8.81,33.11,8.81Z"/><path d="M35.22,7.27c0-.07,0-.1-.13-.1H35v.35h.08V7.38l.1.14h.1l-.12-.15A.1.1,0,0,0,35.22,7.27Zm-.15.05h0V7.23h0s.06,0,.06,0S35.12,7.32,35.07,7.32Z"/><path d="M35.11,7a.31.31,0,1,0,.3.31A.31.31,0,0,0,35.11,7Zm0,.56a.25.25,0,1,1,.24-.25A.25.25,0,0,1,35.11,7.59Z"/><path d="M18,13.08l-1-1.09v1.44h.18v-1l1,1.09V12.06H18Z"/><path d="M18.85,12.06v1.37h.73v-.17H19v-.5h.53V12.6H19v-.37h.55v-.17h-.73Z"/><path d="M20.13,12.06v.17h.32v1.2h.18v-1.2H21v-.17h-.82Z"/><path d="M22.8,13c0-.06-.43-1.07-.43-1.07v0s-.4,1-.42,1-.35-1-.35-1H21.4l.54,1.46.43-1.08c0,.07.43,1.08.43,1.08l.53-1.46h-.19S22.82,13,22.8,13Z"/><path d="M24.54,12a.71.71,0,0,0-.71.71.71.71,0,0,0,1.42,0A.71.71,0,0,0,24.54,12Zm0,1.25a.54.54,0,0,1-.53-.54.54.54,0,0,1,.53-.54.53.53,0,0,1,.53.54A.54.54,0,0,1,24.54,13.29Z"/><path d="M26.58,12.45c0-.26-.16-.39-.5-.39h-.21v1.37h.18v-.59h0l.39.58h.22s-.4-.58-.43-.61A.35.35,0,0,0,26.58,12.45Zm-.53.23v-.45h0c.17,0,.32,0,.32.23s-.16.22-.32.22Z"/><path d="M28.24,12.06H28l-.55.56v-.56h-.18v1.37h.18v-.59l0,0,.54.6h.25l-.66-.73Z"/></svg>