<svg aria-label="Ties icon" class="icon icon--solid" width="48" height="48" xmlns="http://www.w3.org/2000/svg" viewBox="0 0 48 48"><path d="M31.13 11.22c.07.08.15.15.24.19.09.05.2.07.3.08l.2-1.48a.65.65 0 0 0-.31 0c-.1.02-.2.06-.29.12s-.16.14-.21.22-.09.19-.1.29c-.01.1 0 .21.02.31.03.1.08.19.15.27ZM27.62 12.92c.19.04.42.04.58-.06.41-.3.86-.55 1.34-.74.13-.06.27-.1.41-.14l.05-.02-.23-.71.23.71c.17-.07.31-.2.39-.37.08-.17.1-.36.04-.54a.746.746 0 0 0-.33-.43.708.708 0 0 0-.53-.09c-.2 0-.39.12-.57.18-.59.24-1.14.55-1.66.92a.736.736 0 0 0-.18 1c.11.15.28.26.46.29Z" fill="currentColor"/><path d="M39.05 21c.08-2.04-.23-4.07-.96-5.98-.47-1.33-1.3-2.5-2.4-3.38s-2.42-1.44-3.82-1.62l-.2 1.48c1.13.15 2.2.61 3.08 1.34s1.55 1.68 1.92 2.75c.7 1.82.97 3.78.83 5.72-.49-.1-.98-.18-1.48-.24-.05-1.71-.4-3.4-1.05-4.99-.29-.76-.71-1.47-1.24-2.09-.24-.3-.54-.55-.89-.72a2.68 2.68 0 0 0-1.11-.28c-.72.03-1.41.26-2 .67-.69.46-1.34.99-1.93 1.57-.66.62-1.36 1.34-2.09 2.1-.73.76-1.5 1.57-2.32 2.37-3.2 3.15-7.02 6.11-11.76 6.27-.05-.26-.07-.53-.1-.81-.03-.24-.02-.48-.02-.71 2.09-.21 4.67-1.23 7.25-2.82 3.14-1.97 5.9-4.49 8.14-7.44l-.03-.02c.05-.07.09-.15.12-.24.02-.1.03-.19.02-.29a.726.726 0 0 0-.1-.28.833.833 0 0 0-.2-.22.906.906 0 0 0-.26-.13c-.1-.02-.19-.03-.29-.02-.1.01-.19.05-.28.1-.08.05-.16.12-.22.2l.02.02c-1.36 1.79-2.94 3.39-4.67 4.82v-.03a.678.678 0 0 0-.13-.27l-1.24.84a.63.63 0 0 0 .36.29c-.49.37-1.01.72-1.53 1.05-.03-.06-.05-.13-.09-.19-.23-.35-.43-.7-.64-1.06-.2-.35-.42-.68-.66-1-.25-.38-.6-.7-1-.92-.41-.22-.86-.33-1.32-.32v-.03c-.75.05-1.45.35-2 .85-.64.57-1.17 1.24-1.57 2a10.05 10.05 0 0 0-1.14 5.99c.52 4.18 2.66 6.16 4.71 6.16a8.55 8.55 0 0 0 3.71-.63c.97-.52 1.85-1.18 2.64-1.94.24.42.49.82.74 1.23a6.972 6.972 0 0 1-3.56 2.25c-1.3.38-2.65.58-4 .59-1.2-.16-2.33-.76-3.12-1.67A10.11 10.11 0 0 1 8.5 26.1h.05c-.45-2.51-.13-5.1.94-7.41 1.06-2.23 2.72-3.69 4.8-3.7 1.31-.07 2.59.37 3.57 1.24.68.74 1.27 1.55 1.76 2.43l1.26-.84c-.55-.98-1.22-1.88-2-2.69a6.44 6.44 0 0 0-4.64-1.64c-2.9.01-4.98 2.01-6.16 4.55-.53 1.18-.89 2.42-1.08 3.68l-.53-.32c-.52-.31-1.15-.41-1.74-.27-.59.15-1.1.52-1.41 1.05-.29.48-.4 1.05-.3 1.61.1.55.41 1.05.86 1.39l3.42 2.66s.08.04.12.07c.54 1.67 1.46 3.21 2.69 4.48a6.351 6.351 0 0 0 4.15 2.1c1.51 0 3.02-.23 4.47-.66 1.54-.4 2.92-1.23 3.99-2.38.25.35.48.7.74 1.04 2.11 2.68 4.94 5 8.3 5 .63-.02 1.25-.16 1.82-.41.57-.26 1.09-.62 1.52-1.08.92-.95 1.67-2.06 2.2-3.27.84-1.82 1.36-3.76 1.59-5.75.03 0 .07.01.1.01 1.66 0 3-1.34 3-3s-1.32-2.97-2.95-3Zm-26.51-.91c.31-.6.72-1.13 1.22-1.58.27-.27.63-.44 1.01-.49.23 0 .45.06.65.18.2.11.36.27.48.47.2.28.38.58.55.88.2.35.43.75.7 1.15h.02s.06.05.09.09c-2.12 1.22-4.1 1.96-5.66 2.16.15-.99.45-1.96.94-2.85Zm-7.73 3.92a.842.842 0 0 1-.28-.47c-.03-.18 0-.37.09-.53.05-.09.12-.22.21-.28.08-.06.18-.11.28-.13s.21-.03.31-.01.2.05.29.11l1.15.7c-.02.77.02 1.54.13 2.31l-2.18-1.69ZM35.2 22.5c.38.03.76.08 1.14.14-.21.41-.34.87-.34 1.37 0 .2.02.4.06.59-.24-.02-.48-.03-.72-.03-3.58-.26-7.11.81-9.95 2.96-.21-.39-.41-.78-.6-1.18 1.99-1.52 5.29-4.29 10.42-3.84Zm-.75 3.54a17.61 17.61 0 0 1-1.01 4.52c-.24.67-.6 1.3-1.06 1.85a1.523 1.523 0 0 1-1.11.6 4.12 4.12 0 0 1-2.6-1.09c-.95-.83-1.76-1.8-2.42-2.88-.04-.07-.07-.13-.11-.2a13.24 13.24 0 0 1 8.31-2.8Zm-9.97-5.24c.84-.83 1.63-1.65 2.36-2.41.73-.76 1.4-1.46 2-2.05.52-.52 1.09-.98 1.7-1.39.35-.25.77-.41 1.2-.44.17.02.36.08.5.16s.27.2.36.34c.42.5.76 1.06 1 1.66.55 1.37.86 2.82.92 4.29-5.1-.15-8.47 2.53-10.39 4-.41-.92-.78-1.85-1.1-2.8.5-.45.99-.91 1.45-1.36Zm-6.6 8.75c-.98.39-2.03.56-3.08.49-.76 0-1.99-.61-2.74-2.56 2.7-.16 5.1-1.12 7.22-2.45.34.88.73 1.74 1.15 2.58-.75.77-1.6 1.42-2.55 1.94Zm18.07 2.56c-.46 1.04-1.09 2-1.88 2.82-.29.32-.65.58-1.04.77-.39.18-.82.29-1.26.3-2.64.01-5.09-1.88-7.12-4.45-.43-.56-.83-1.13-1.22-1.71s-.01-.03-.02-.03a28.662 28.662 0 0 1-2.86-5.63c.43-.31.86-.64 1.27-.97.84 2.31 1.89 4.54 3.17 6.65.74 1.21 1.66 2.3 2.73 3.23a5.58 5.58 0 0 0 3.55 1.43c.43-.01.84-.12 1.23-.31.38-.19.72-.46.99-.78.58-.69 1.04-1.47 1.35-2.31.6-1.61.96-3.29 1.1-5 .37.03.73.08 1.09.15.13.11.26.21.4.3-.19 1.92-.68 3.8-1.48 5.55Zm3.05-6.1c-.85 0-1.57-.53-1.86-1.28-.09-.22-.14-.46-.14-.72 0-.44.15-.84.38-1.17.36-.5.95-.83 1.62-.83.16 0 .31.02.46.06.02 0 .04.01.06.02.2.05.39.13.55.24.55.36.92.97.92 1.68 0 1.1-.9 2-2 2Z" fill="currentColor"/></svg>