<svg aria-label="Diners Club logo" class="icon-payment icon-diners-club" width="46" height="24" xmlns="http://www.w3.org/2000/svg" viewBox="0 0 46 24"><path d="M4.39,12a3.17,3.17,0,0,0,2,3V9A3.17,3.17,0,0,0,4.39,12Z"/><path d="M10.19,6.54H7.55A5.39,5.39,0,0,0,2,11.77v.28a5.49,5.49,0,0,0,5.52,5.41h2.6a5.68,5.68,0,0,0,5.72-5.41A5.58,5.58,0,0,0,10.19,6.54ZM7.56,17a5,5,0,1,1,5-5A5,5,0,0,1,7.56,17Z"/><path d="M8.7,9v6a3.17,3.17,0,0,0,0-6Z"/><path d="M22.44,12.14h-.1c-.16,0-.29,0-.29-.19V9.67H22l-.62.2V10c.22.12.3.15.3.41v1.55c0,.19-.11.19-.27.19h-.11v.18h1.19Z"/><path d="M21.86,8.75h0a.28.28,0,1,0-.29-.29A.3.3,0,0,0,21.86,8.75Z"/><path d="M21,10.25a.41.41,0,0,0,0-.11,2.1,2.1,0,0,0-2.29-1.89H17.07V8.4c.26,0,.53,0,.53.49v2.77c0,.44-.19.44-.53.44v.15h1.6C20.71,12.25,21,10.82,21,10.25Zm-2.88,1.33V8.44h.67a1.73,1.73,0,0,1,1.58,1.85,2.09,2.09,0,0,1,0,.25,1.6,1.6,0,0,1-1.66,1.54C18.48,12.08,18.16,12,18.16,11.58Z"/><path d="M38.67,10.19v1.56a.62.62,0,0,0,.64.62,1.54,1.54,0,0,0,1-.49v.47a5.84,5.84,0,0,1,.83-.18v-.12h-.23c-.09,0-.16,0-.16-.11V9.83c0-.11.06-.11,0-.11a5.73,5.73,0,0,1-.9.08v.11c.2.05.48.12.48.23v1.59a1.3,1.3,0,0,1-.69.35c-.51,0-.51-.5-.51-.67V9.93c0-.17,0-.17-.06-.17h-.74v.11C38.67,9.9,38.67,10,38.67,10.19Z"/><path d="M35.44,12.32A3.29,3.29,0,0,0,36.71,12l.14-.84h-.14a1.16,1.16,0,0,1-1.15,1,1.87,1.87,0,0,1-1.72-2,1.09,1.09,0,0,1,0-.18,1.63,1.63,0,0,1,1.64-1.64,1.09,1.09,0,0,1,1.23.94h.15l-.07-.83a4.2,4.2,0,0,0-1.36-.3,2.11,2.11,0,0,0-2.18,2,2.43,2.43,0,0,0,0,.27A2.06,2.06,0,0,0,35.44,12.32Z"/><path d="M30.73,12.16a.76.76,0,0,1-.73-.7l-.15,0,.06.66a1.42,1.42,0,0,0,.7.2c.7,0,1-.41,1-.78,0-.91-1.33-.7-1.33-1.37v0a.4.4,0,0,1,.45-.35h0a.6.6,0,0,1,.63.57h.13V9.8a1.69,1.69,0,0,0-.66-.16h0a.78.78,0,0,0-.84.73c0,.93,1.25.71,1.25,1.39C31.19,12,31.07,12.16,30.73,12.16Z"/><path d="M41.44,8.72v2.49a6.74,6.74,0,0,1-.08,1l.12.07.17-.13a1.72,1.72,0,0,0,.8.2,1.46,1.46,0,0,0,1.37-1.51v0a1.12,1.12,0,0,0-1.07-1.17,1.45,1.45,0,0,0-.85.41l0-2.1V7.87l-.13.07a3.32,3.32,0,0,1-.59.24v.1C41.35,8.34,41.44,8.35,41.44,8.72Zm1,1.28a1.09,1.09,0,0,1,.93,1.08c0,.51-.25,1.12-.87,1.12a.61.61,0,0,1-.59-.59V10.27A.85.85,0,0,1,42.43,10Z"/><path d="M26.64,12.35a1.34,1.34,0,0,0,1.06-.65l-.08-.08a1.08,1.08,0,0,1-.77.38A1,1,0,0,1,26,11a1.64,1.64,0,0,1-.05-.32l1.7,0h.05v-.1a.41.41,0,0,0,0-.11.89.89,0,0,0-1-.79c-.4,0-1.16.33-1.16,1.46v.06A1.15,1.15,0,0,0,26.64,12.35Zm0-2.53h.05a.49.49,0,0,1,.45.53c0,.07,0,.14-.16.14H26C26,10.08,26.26,9.82,26.61,9.82Z"/><path d="M27.89,12.11h-.15l0,.19h1.43v-.15h-.32c-.17,0-.28,0-.28-.19V10.61a.48.48,0,0,1,.42-.47c.2,0,.2.13.38.13h0a.27.27,0,0,0,.25-.29h0a.31.31,0,0,0-.33-.29c-.35,0-.59.36-.73.59V9.75c0-.07,0-.07-.05-.07s-.28.15-.7.32v.05c.09,0,.3.08.3.26v1.61C28.17,12.11,28.05,12.11,27.89,12.11Z"/><path d="M23.88,12.11h-.11c-.16,0-.29,0-.29-.19v-1.7a1.64,1.64,0,0,1,.67-.27c.33,0,.53.16.53.48v1.44c0,.19-.11.19-.28.19h-.1v.15h1.18v-.15h-.1c-.16,0-.29,0-.29-.19V10.39c0-.45-.17-.8-.66-.8a1.71,1.71,0,0,0-1,.43V9.64c-.25.1-.5.19-.76.27V10c.27.11.33.17.33.38l0,1.52c0,.19-.11.19-.27.19h-.11v.15h1.24Z"/><path d="M38.25,12.14h-.1c-.16,0-.29,0-.29-.19V7.87l-.13.07a3.32,3.32,0,0,1-.59.24v.1c.22.06.3.07.3.44v3.2c0,.19-.11.19-.27.19h-.11v.18h1.2Z"/><path d="M36.11,13.47h0A1.14,1.14,0,0,0,35,14.62v.05a1.1,1.1,0,0,0,1.13,1.07h.08a1.15,1.15,0,0,0,1.1-1.2.38.38,0,0,0,0-.1A1.09,1.09,0,0,0,36.11,13.47Zm0,2.13c-.5,0-.77-.67-.77-1.09s.19-.91.71-.91.77.53.77,1S36.77,15.6,36.16,15.6Z"/><polygon points="36.11 13.47 36.11 13.47 36.12 13.47 36.11 13.47"/><path d="M33.91,13.61c.11,0,.23,0,.23.17v1.64c0,.18-.12.18-.23.18v.09h1V15.6c-.11,0-.23,0-.23-.18V13.78c0-.17.12-.17.23-.17v-.1h-1Z"/><path d="M39.92,13.51H39.1v.1h.09a.26.26,0,0,1,.23.29v1.18L38,13.51H37.4v.1h0a.27.27,0,0,1,.26.28V15.2c0,.25-.06.4-.28.4v.14h.83v-.09h-.06c-.29,0-.29-.09-.29-.37V14l1.59,1.74h.12V14c0-.39.15-.39.28-.39h.05Z"/><path d="M43.88,15.16a.67.67,0,0,1-.1.23.48.48,0,0,1-.3.17h-.41c-.1,0-.19-.05-.19-.17V13.78c0-.17.09-.17.21-.17h.08v-.1h-1v.1c.12,0,.24,0,.24.17v1.61c0,.21-.12.21-.24.21v.09h1.68l.12-.53Z"/><path d="M41.8,15.52a1.75,1.75,0,0,1-.12-.32l-.58-1.64v-.08a1.51,1.51,0,0,1-.29.13,2.85,2.85,0,0,1-.11.39l-.54,1.4a.29.29,0,0,1-.28.2v.09h.71V15.6c-.11,0-.24,0-.24-.11a2.17,2.17,0,0,1,.07-.24l0-.33h.71l.12.36a.88.88,0,0,1,.07.23c0,.09-.12.09-.2.09v.13H42v-.09A.19.19,0,0,1,41.8,15.52Zm-1.21-.77.29-.89.3.89Z"/><path d="M33.49,13.51H31.87c-.08,0-.19,0-.19-.09h-.07V14h.1c0-.22.05-.28.29-.28h.53v1.67c0,.26-.09.26-.26.26h-.06v0h1v-.09h-.06c-.15,0-.26,0-.26-.27V13.62h.52c.23,0,.23.18.23.3h.09v-.5h-.07C33.65,13.51,33.57,13.51,33.49,13.51Z"/><path d="M29.68,13.51h-.83v.1h.07c.1,0,.27,0,.27.29v1.18l-1.38-1.57h-.64v.1h0a.27.27,0,0,1,.26.28V15.2c0,.25-.06.4-.28.4v.14H28v-.09H28c-.24,0-.29-.09-.29-.37V14l1.57,1.74h.12a1.61,1.61,0,0,1,0-.31V14c0-.39.15-.39.28-.39h.05Z"/><path d="M24.08,15.52c-.2,0-.38,0-.38-.21v-.72h.37c.25,0,.25.12.25.3h.09v-.73h-.09c0,.17-.06.28-.25.28H23.7v-.82h.42c.33,0,.38.16.38.37h.1a3.84,3.84,0,0,1,0-.48H23v.1c.12,0,.24,0,.24.17v1.64c0,.18-.12.18-.24.18v0h1.69a2.88,2.88,0,0,0,.11-.49h-.09C24.62,15.52,24.45,15.52,24.08,15.52Z"/><path d="M31.57,15.52a.94.94,0,0,1-.11-.32l-.58-1.64v-.08a1.51,1.51,0,0,1-.29.13,2.85,2.85,0,0,1-.11.39l-.57,1.4a.27.27,0,0,1-.27.2v.09h.72V15.6c-.11,0-.24,0-.24-.11a2.17,2.17,0,0,1,.07-.24l.11-.33H31l.13.36a.88.88,0,0,1,.07.23c0,.09-.13.09-.2.09v.13h.78v-.09A.21.21,0,0,1,31.57,15.52Zm-1.21-.77.29-.89.35.89Z"/><path d="M19.84,13.51v.1h.07c.1,0,.27,0,.27.29v1.19L18.8,13.51h-.63v.1h0a.27.27,0,0,1,.26.28V15.2c0,.25-.06.4-.28.4v.14H19v-.09h-.09c-.24,0-.29-.09-.29-.37V14l1.6,1.74h.12a1.61,1.61,0,0,1,0-.31V14c0-.39.15-.39.28-.39h.05v-.1h-.83Z"/><path d="M22.67,13.52H21.05c-.08,0-.19,0-.19-.09h-.07V14h.09c.05-.22.06-.28.3-.28h.46v1.67c0,.26-.09.26-.26.26h-.06v.05h1v-.09h-.06c-.15,0-.26,0-.26-.27V13.63h.58c.24,0,.24.18.24.3h.09v-.5h-.08C22.83,13.52,22.75,13.52,22.67,13.52Z"/><path d="M26.76,15.41l-.54-.8a.6.6,0,0,0,.44-.55c0-.44-.35-.55-.75-.55h-1v.1H25c.1,0,.22,0,.22.23l0,1.59c0,.17-.1.17-.22.17h-.08v.1h1v-.09h-.06c-.14,0-.26,0-.26-.25v-.67h.21a8.15,8.15,0,0,0,.65,1h.6V15.6A.37.37,0,0,1,26.76,15.41Zm-1-.84H25.6v-.94h.25a.42.42,0,0,1,.39.45C26.24,14.45,26.07,14.57,25.76,14.57Z"/><path d="M17.07,13.61h.05c.11,0,.23,0,.23.17v1.65c0,.18-.12.18-.23.18h-.05l-.07.08h1V15.6c-.11,0-.23,0-.23-.18V13.78c0-.17.12-.17.23-.17h.07v-.1h-1Z"/></svg>