<svg aria-label="Palm icon" class="icon icon-palm" width="24" height="24" fill="none" xmlns="http://www.w3.org/2000/svg" viewBox="0 0 24 24"><path d="M12 8.5c1.508 2 2 5 1.508 13.688" stroke="currentColor" stroke-width="1.5" vector-effect="non-scaling-stroke" stroke-linecap="round" stroke-linejoin="round"/><path d="M4.869 2.973c-2.51.773-3.443 3.193-3.27 4.313C3.72 4.499 7.572 5.474 8.856 6.169c-8.113 1.248-5.269 8.366-4.283 9.089C5.132 10.364 9.5 8.5 11.5 8.5c4.031 0 6.475 2.947 6.869 5.51 3.547-5.355-.058-8.9-6.523-8.301 2.575-2.169 6.596-1.511 8.6-.927-2.088-4.246-8.015-5.72-10.423-.777-.95-.647-3.093-1.666-5.154-1.032Z" stroke="currentColor" stroke-width="1.5" vector-effect="non-scaling-stroke" stroke-linecap="round" stroke-linejoin="round"/><path d="M10.908 9c.241 2.97.23 9.268-2.908 14" stroke="currentColor" stroke-width="1.5" vector-effect="non-scaling-stroke" stroke-linecap="round" stroke-linejoin="round"/></svg>