<svg aria-label="Globe Icon" class="icon icon-globe" width="20" height="20" viewBox="0 0 20 20" fill="none" xmlns="http://www.w3.org/2000/svg"><path d="M2.928 7.5h14.144" stroke="currentColor" stroke-width="1.2" vector-effect="non-scaling-stroke"/><path d="M10 17.5c-1.841 0-3.333-3.358-3.333-7.5 0-4.142 1.492-7.5 3.333-7.5" stroke="currentColor" stroke-width="1.2" stroke-linecap="square" vector-effect="non-scaling-stroke"/><path d="M10 12.5H2.928" stroke="currentColor" stroke-width="1.2" vector-effect="non-scaling-stroke"/><path d="M10 17.5a7.5 7.5 0 0 1 0-15" stroke="currentColor" stroke-width="1.2" stroke-linecap="square" vector-effect="non-scaling-stroke"/><path d="M15.418 14.375a.208.208 0 1 1-.002.416.208.208 0 0 1 .002-.416" stroke="currentColor" stroke-width="1.5" stroke-linecap="round" stroke-linejoin="round" vector-effect="non-scaling-stroke"/><path d="M12.5 14.583a2.917 2.917 0 1 1 5.833 0M12.5 14.583c0 2.084 2.917 4.167 2.917 4.167s2.916-2.083 2.916-4.167" stroke="currentColor" stroke-width="1.2" vector-effect="non-scaling-stroke"/><path d="M13.312 9.167C13.127 5.417 11.716 2.5 10 2.5" stroke="currentColor" stroke-width="1.2" stroke-linecap="square" vector-effect="non-scaling-stroke"/><path d="M17.451 9.167A7.499 7.499 0 0 0 10 2.5" stroke="currentColor" stroke-width="1.2" stroke-linecap="square" vector-effect="non-scaling-stroke"/></svg>